<?xml version="1.0" encoding="UTF-8"?>
<svg height="128px" viewBox="0 0 128 128" width="128px" xmlns="http://www.w3.org/2000/svg">
    <path d="m 49.214844 43.355469 l -16.171875 -8.023438 l -13.5 2.886719 c -0.023438 0.003906 -0.039063 0.019531 -0.050781 0.039062 l -3.226563 6.761719 l -5.570313 6.222657 c -0.039062 0.046874 -0.007812 0.117187 0.050782 0.113281 l 9.371094 -0.425781 l 6.070312 4.335937 l 11.324219 17.945313 c 0.003906 0.003906 0.007812 0.007812 0.011719 0.011718 l 12.195312 11.023438 c 0.003906 0.003906 0.011719 0.011718 0.019531 0.011718 l 11.035157 4.125 l 14.777343 18.351563 c 0.042969 0.0625 0.136719 0.019531 0.121094 -0.050781 l -1.824219 -9.496094 l 16.371094 13.289062 c 0.058594 0.050782 0.140625 -0.023437 0.097656 -0.085937 l -7.738281 -13.035156 l 22.324219 10.570312 c 0.066406 0.027344 0.125 -0.054687 0.074218 -0.109375 l -16.292968 -17.5 l 18.402344 4.035156 c 0.078124 0.015626 0.113281 -0.089843 0.046874 -0.125 l -35.675781 -20.203124 l -2.003906 -4.589844 l 21.777344 4.769531 c 0.066406 0.011719 0.109375 -0.070313 0.058593 -0.117187 l -16.179687 -13.996094 l 34.398437 5.515625 c 0.066407 0.003906 0.097657 -0.078125 0.042969 -0.121094 l -22.882812 -15.542969 l 33.824219 -2.582031 c 0.070312 -0.007813 0.085937 -0.101563 0.019531 -0.128906 l -29.40625 -10.789063 l 28.746093 -8.253906 c 0.066407 -0.019531 0.0625 -0.113281 -0.003906 -0.128906 l -27.121094 -5.039063 z m 0 0" fill="#f96900"/>
    <path d="m 24.542969 101.011719 c 0 -0.6875 -0.25 -1.285157 -0.753907 -1.789063 c -0.503906 -0.507812 -1.101562 -0.757812 -1.792968 -0.757812 s -1.289063 0.25 -1.792969 0.757812 c -0.503906 0.503906 -0.757813 1.101563 -0.757813 1.789063 c 0 0.691406 0.253907 1.289062 0.757813 1.792969 c 0.503906 0.503906 1.101563 0.757812 1.792969 0.757812 s 1.289062 -0.253906 1.792968 -0.757812 c 0.503907 -0.503907 0.753907 -1.101563 0.753907 -1.792969 z m -1.511719 10.4375 c -0.980469 0.980469 -2.175781 1.472656 -3.585938 1.472656 c -1.378906 0 -2.585937 -0.492187 -3.621093 -1.472656 l -4.222657 -4.300781 c -1.007812 -0.957032 -1.511718 -2.152344 -1.511718 -3.585938 c 0 -1.40625 0.503906 -2.617188 1.511718 -3.625 c 10.992188 -11.019531 22.070313 -21.953125 32.953126 -33.085938 l 12.3125 10.511719 s -22.515626 22.765625 -33.835938 34.085938 z m 52.410156 -44.488281 c 0 1.035156 -0.304687 2.445312 -0.914062 4.222656 c -1.25 3.558594 -3.433594 6.445312 -6.550782 8.664062 c -3.121093 2.214844 -6.554687 3.324219 -10.296874 3.324219 c -4.910157 0 -9.113282 -1.746094 -12.605469 -5.238281 c -3.492188 -3.492188 -5.238281 -7.691406 -5.238281 -12.605469 c 0 -4.910156 1.746093 -9.113281 5.238281 -12.605469 c 3.492187 -3.488281 7.695312 -5.234375 12.605469 -5.234375 c 1.539062 0 3.152343 0.21875 4.839843 0.65625 c 1.683594 0.4375 3.113281 1.054688 4.28125 1.851563 c 0.425781 0.292968 0.636719 0.664062 0.636719 1.117187 c 0 0.449219 -0.210938 0.820313 -0.636719 1.113281 l -11.667969 6.730469 v 8.921875 l 7.683594 4.261719 c 0.132813 -0.082031 1.183594 -0.722656 3.148438 -1.933594 c 1.964844 -1.207031 3.761718 -2.28125 5.394531 -3.226562 c 1.632813 -0.941407 2.570313 -1.414063 2.808594 -1.414063 c 0.398437 0 0.710937 0.132813 0.9375 0.398438 c 0.222656 0.265625 0.335937 0.597656 0.335937 0.996094 z m 0 0" fill="#5c5c5c"/>
</svg>
