<?xml version="1.0" encoding="UTF-8" standalone="no"?>
<!-- Created with Inkscape (http://www.inkscape.org/) -->

<svg
   inkscape:export-ydpi="96"
   inkscape:export-xdpi="96"
   inkscape:export-filename="Template.png"
   width="128"
   height="128"
   id="svg11300"
   sodipodi:version="0.32"
   inkscape:version="1.3 (0e150ed6c4, 2023-07-21)"
   sodipodi:docname="logo.svg"
   inkscape:output_extension="org.inkscape.output.svg.inkscape"
   version="1.0"
   style="display:inline;enable-background:new"
   viewBox="0 0 128 128"
   xml:space="preserve"
   xmlns:inkscape="http://www.inkscape.org/namespaces/inkscape"
   xmlns:sodipodi="http://sodipodi.sourceforge.net/DTD/sodipodi-0.dtd"
   xmlns:xlink="http://www.w3.org/1999/xlink"
   xmlns="http://www.w3.org/2000/svg"
   xmlns:svg="http://www.w3.org/2000/svg"
   xmlns:rdf="http://www.w3.org/1999/02/22-rdf-syntax-ns#"
   xmlns:cc="http://creativecommons.org/ns#"
   xmlns:dc="http://purl.org/dc/elements/1.1/"><title
     id="title4162">Adwaita Icon Template</title><defs
     id="defs3"><linearGradient
       y2="236"
       x2="96"
       y1="236"
       x1="32"
       gradientTransform="translate(604.81684,170.58641)"
       gradientUnits="userSpaceOnUse"
       id="linearGradient1099"
       xlink:href="#linearGradient1036" /><linearGradient
       id="linearGradient1036"><stop
         id="stop1032"
         offset="0"
         style="stop-color:#d5d3cf;stop-opacity:1;" /><stop
         id="stop1034"
         offset="1"
         style="stop-color:#f6f5f4;stop-opacity:1" /></linearGradient><radialGradient
       r="32"
       fy="-76"
       fx="-244"
       cy="-76"
       cx="-244"
       gradientTransform="matrix(0.88333331,0,0,0.88333331,-460.35018,463.11973)"
       gradientUnits="userSpaceOnUse"
       id="radialGradient1103"
       xlink:href="#linearGradient1069" /><linearGradient
       id="linearGradient1069"><stop
         id="stop1065"
         offset="0"
         style="stop-color:#d5d3cf;stop-opacity:1" /><stop
         id="stop1067-1"
         offset="1"
         style="stop-color:#949390;stop-opacity:1" /></linearGradient><linearGradient
       gradientUnits="userSpaceOnUse"
       y2="232"
       x2="64"
       y1="262.5"
       x1="64"
       id="linearGradient1027"
       xlink:href="#linearGradient1025"
       gradientTransform="translate(-470.5864,432.81685)" /><linearGradient
       id="linearGradient1025"><stop
         id="stop1021"
         offset="0"
         style="stop-color:#9a9996;stop-opacity:1" /><stop
         id="stop1023"
         offset="1"
         style="stop-color:#77767b;stop-opacity:1" /></linearGradient><inkscape:path-effect
       effect="spiro"
       id="path-effect35304-9"
       is_visible="true" /><clipPath
       clipPathUnits="userSpaceOnUse"
       id="clipPath1609-7"><path
         sodipodi:nodetypes="cccccc"
         inkscape:connector-curvature="0"
         id="path1611-5"
         d="m 252,116 28,-28 v -8 h -36 v 36 z"
         style="fill:#e74747;stroke:none;stroke-width:0.25px;stroke-linecap:butt;stroke-linejoin:miter;stroke-opacity:1" /></clipPath></defs><sodipodi:namedview
     stroke="#ef2929"
     fill="#f57900"
     id="base"
     pagecolor="#ffffff"
     bordercolor="#666666"
     borderopacity="0.25490196"
     inkscape:pageopacity="0.0"
     inkscape:pageshadow="2"
     inkscape:zoom="21.712227"
     inkscape:cx="155.949"
     inkscape:cy="8.7047728"
     inkscape:current-layer="layer1"
     showgrid="false"
     inkscape:grid-bbox="true"
     inkscape:document-units="px"
     inkscape:showpageshadow="false"
     inkscape:window-width="2560"
     inkscape:window-height="1398"
     inkscape:window-x="0"
     inkscape:window-y="20"
     width="400px"
     height="300px"
     inkscape:snap-nodes="true"
     inkscape:snap-bbox="true"
     objecttolerance="7"
     gridtolerance="12"
     guidetolerance="13"
     inkscape:window-maximized="1"
     inkscape:pagecheckerboard="false"
     showguides="false"
     inkscape:guide-bbox="true"
     inkscape:locked="false"
     inkscape:measure-start="0,0"
     inkscape:measure-end="0,0"
     inkscape:object-nodes="true"
     inkscape:bbox-nodes="true"
     inkscape:snap-global="true"
     inkscape:object-paths="true"
     inkscape:snap-intersection-paths="true"
     inkscape:snap-bbox-edge-midpoints="true"
     inkscape:snap-bbox-midpoints="true"
     showborder="false"
     inkscape:snap-center="true"
     inkscape:snap-object-midpoints="true"
     inkscape:snap-midpoints="true"
     inkscape:snap-smooth-nodes="true"
     inkscape:snap-text-baseline="true"
     inkscape:deskcolor="#d1d1d1"><inkscape:grid
       type="xygrid"
       id="grid5883"
       spacingx="2"
       spacingy="2"
       enabled="true"
       visible="false"
       empspacing="4"
       originx="0"
       originy="0"
       units="px" /><sodipodi:guide
       position="64,8"
       orientation="0,1"
       id="guide1073"
       inkscape:locked="false"
       inkscape:label=""
       inkscape:color="rgb(0,0,255)" /><sodipodi:guide
       position="12,64"
       orientation="1,0"
       id="guide1075"
       inkscape:locked="false"
       inkscape:label=""
       inkscape:color="rgb(0,0,255)" /><sodipodi:guide
       position="64,104"
       orientation="0,1"
       id="guide1099"
       inkscape:locked="false"
       inkscape:label=""
       inkscape:color="rgb(0,0,255)" /><sodipodi:guide
       position="64,128"
       orientation="0,1"
       id="guide993"
       inkscape:locked="false"
       inkscape:label=""
       inkscape:color="rgb(0,0,255)" /><sodipodi:guide
       position="104,64"
       orientation="1,0"
       id="guide995"
       inkscape:locked="false"
       inkscape:label=""
       inkscape:color="rgb(0,0,255)" /><sodipodi:guide
       position="9.2651362e-08,64"
       orientation="1,0"
       id="guide867"
       inkscape:locked="false"
       inkscape:label=""
       inkscape:color="rgb(0,0,255)" /><sodipodi:guide
       position="120,64"
       orientation="1,0"
       id="guide869"
       inkscape:locked="false"
       inkscape:label=""
       inkscape:color="rgb(0,0,255)" /><sodipodi:guide
       position="64,116"
       orientation="0,1"
       id="guide871"
       inkscape:locked="false"
       inkscape:label=""
       inkscape:color="rgb(0,0,255)" /><inkscape:grid
       type="xygrid"
       id="grid873"
       spacingx="1"
       spacingy="1"
       empspacing="8"
       color="#000000"
       opacity="0.49019608"
       empcolor="#000000"
       empopacity="0.08627451"
       dotted="true"
       originx="0"
       originy="0"
       units="px"
       visible="false" /><sodipodi:guide
       position="24,64"
       orientation="1,0"
       id="guide877"
       inkscape:locked="false"
       inkscape:label=""
       inkscape:color="rgb(0,0,255)" /><sodipodi:guide
       position="116,64"
       orientation="1,0"
       id="guide879"
       inkscape:locked="false"
       inkscape:label=""
       inkscape:color="rgb(0,0,255)" /><sodipodi:guide
       position="64,120"
       orientation="0,1"
       id="guide881"
       inkscape:locked="false"
       inkscape:label=""
       inkscape:color="rgb(0,0,255)" /><sodipodi:guide
       position="64,12"
       orientation="0,1"
       id="guide883"
       inkscape:locked="false"
       inkscape:label=""
       inkscape:color="rgb(0,0,255)" /><sodipodi:guide
       position="8,64"
       orientation="1,0"
       id="guide885"
       inkscape:locked="false"
       inkscape:label=""
       inkscape:color="rgb(0,0,255)" /><sodipodi:guide
       position="128,64"
       orientation="1,0"
       id="guide887"
       inkscape:locked="false"
       inkscape:label=""
       inkscape:color="rgb(0,0,255)" /><sodipodi:guide
       position="64,0"
       orientation="0,1"
       id="guide897"
       inkscape:locked="false"
       inkscape:label=""
       inkscape:color="rgb(0,0,255)" /><sodipodi:guide
       position="64,24"
       orientation="0,1"
       id="guide899"
       inkscape:locked="false"
       inkscape:label=""
       inkscape:color="rgb(0,0,255)" /><sodipodi:guide
       position="256,256"
       orientation="-0.70710678,0.70710678"
       id="guide950"
       inkscape:locked="false"
       inkscape:label=""
       inkscape:color="rgb(0,0,255)" /><sodipodi:guide
       position="64,64"
       orientation="0.70710678,0.70710678"
       id="guide952"
       inkscape:locked="false"
       inkscape:label=""
       inkscape:color="rgb(0,0,255)" /><sodipodi:guide
       position="200.35452,-90.87786"
       orientation="0,-1"
       id="guide4"
       inkscape:locked="false" /><sodipodi:guide
       position="218.68885,-23.862807"
       orientation="0,-1"
       id="guide5"
       inkscape:locked="false" /></sodipodi:namedview><metadata
     id="metadata4"><rdf:RDF><cc:Work
         rdf:about=""><dc:format>image/svg+xml</dc:format><dc:type
           rdf:resource="http://purl.org/dc/dcmitype/StillImage" /><dc:creator><cc:Agent><dc:title>GNOME Design Team</dc:title></cc:Agent></dc:creator><dc:source /><cc:license
           rdf:resource="http://creativecommons.org/licenses/by-sa/4.0/" /><dc:title>Adwaita Icon Template</dc:title><dc:subject><rdf:Bag /></dc:subject><dc:date /><dc:rights><cc:Agent><dc:title /></cc:Agent></dc:rights><dc:publisher><cc:Agent><dc:title /></cc:Agent></dc:publisher><dc:identifier /><dc:relation /><dc:language /><dc:coverage /><dc:description /><dc:contributor><cc:Agent><dc:title /></cc:Agent></dc:contributor></cc:Work><cc:License
         rdf:about="http://creativecommons.org/licenses/by-sa/4.0/"><cc:permits
           rdf:resource="http://creativecommons.org/ns#Reproduction" /><cc:permits
           rdf:resource="http://creativecommons.org/ns#Distribution" /><cc:requires
           rdf:resource="http://creativecommons.org/ns#Notice" /><cc:requires
           rdf:resource="http://creativecommons.org/ns#Attribution" /><cc:permits
           rdf:resource="http://creativecommons.org/ns#DerivativeWorks" /><cc:requires
           rdf:resource="http://creativecommons.org/ns#ShareAlike" /></cc:License></rdf:RDF></metadata><g
     id="layer1"
     inkscape:label="App Icon"
     inkscape:groupmode="layer"
     style="display:inline"
     transform="translate(0,-172)"><g
       inkscape:groupmode="layer"
       id="layer2"
       inkscape:label="baseplate"
       style="display:inline"
       sodipodi:insensitive="true"><g
         style="display:inline;fill:#000000;enable-background:new"
         transform="matrix(7.9911709,0,0,8.0036407,-167.7909,-4846.0776)"
         id="g12027"
         inkscape:export-xdpi="12"
         inkscape:export-ydpi="12" /><rect
         style="display:inline;overflow:visible;visibility:visible;fill:#f0f0f0;fill-opacity:1;fill-rule:nonzero;stroke:none;stroke-width:0.5;marker:none;enable-background:accumulate"
         id="rect13805"
         width="128"
         height="128"
         x="9.2651362e-08"
         y="172"
         inkscape:label="512x512" /><g
         id="g883"
         style="fill:none;fill-opacity:0.25098039;stroke:#a579b3;stroke-opacity:1"
         transform="translate(-24,24)" /><g
         id="g900"
         style="fill:none;fill-opacity:0.25098039;stroke:#a579b3;stroke-opacity:1"
         transform="translate(-24,24)" /><rect
         inkscape:label="512x512"
         y="172"
         x="160"
         height="16"
         width="16"
         id="rect859"
         style="display:inline;overflow:visible;visibility:visible;fill:#f0f0f0;fill-opacity:1;fill-rule:nonzero;stroke:none;stroke-width:0.5;marker:none;enable-background:accumulate" /><text
         xml:space="preserve"
         style="font-style:normal;font-variant:normal;font-weight:bold;font-stretch:normal;font-size:4px;line-height:125%;font-family:Cantarell;-inkscape-font-specification:'Cantarell, Bold';text-align:start;writing-mode:lr-tb;text-anchor:start;display:inline;fill:#000000;fill-opacity:1;stroke:none;stroke-width:0.332649;enable-background:new"
         x="0"
         y="164"
         id="text863"
         inkscape:label="icon-name"><tspan
           style="font-size:4px;stroke-width:0.332649"
           sodipodi:role="line"
           id="tspan861"
           x="0"
           y="164">Hicolor</tspan></text><text
         inkscape:label="icon-name"
         id="text867"
         y="164"
         x="160"
         style="font-style:normal;font-variant:normal;font-weight:bold;font-stretch:normal;font-size:4px;line-height:125%;font-family:Cantarell;-inkscape-font-specification:'Cantarell, Bold';text-align:start;writing-mode:lr-tb;text-anchor:start;display:inline;fill:#000000;fill-opacity:1;stroke:none;stroke-width:0.332649;enable-background:new"
         xml:space="preserve"><tspan
           y="164"
           x="160"
           id="tspan865"
           sodipodi:role="line"
           style="font-size:4px;stroke-width:0.332649">Symbolic</tspan></text></g><g
       inkscape:groupmode="layer"
       id="layer9"
       inkscape:label="icons"
       style="display:inline" /><g
       inkscape:groupmode="layer"
       id="layer3"
       inkscape:label="hairlines"
       style="display:inline"
       sodipodi:insensitive="true"><circle
         cx="64.000031"
         cy="236"
         r="59.504131"
         id="circle2892"
         style="display:inline;opacity:0.1;vector-effect:none;fill:none;fill-opacity:1;stroke:#000000;stroke-width:0.99000001;stroke-linecap:butt;stroke-linejoin:miter;stroke-miterlimit:4;stroke-dasharray:0.99000001, 0.99000001;stroke-dashoffset:0;stroke-opacity:1;marker:none;marker-start:none;marker-mid:none;marker-end:none;paint-order:normal;enable-background:new" /><rect
         ry="7.9292889"
         rx="8.701004"
         y="180.49496"
         x="20.495007"
         height="111.01005"
         width="87.009987"
         id="rect2894"
         style="display:inline;opacity:0.1;vector-effect:none;fill:none;fill-opacity:1;stroke:#000000;stroke-width:0.99000001;stroke-linecap:butt;stroke-linejoin:miter;stroke-miterlimit:4;stroke-dasharray:0.99000001, 0.99000001;stroke-dashoffset:0;stroke-opacity:1;marker:none;marker-start:none;marker-mid:none;marker-end:none;paint-order:normal;enable-background:new" /><rect
         ry="7.9238095"
         rx="7.9238095"
         y="184.49524"
         x="12.495266"
         height="103.00952"
         width="103.00952"
         id="rect2896"
         style="display:inline;opacity:0.1;vector-effect:none;fill:none;fill-opacity:1;stroke:#000000;stroke-width:0.99000001;stroke-linecap:butt;stroke-linejoin:miter;stroke-miterlimit:4;stroke-dasharray:0.99000001, 0.99000001;stroke-dashoffset:0;stroke-opacity:1;marker:none;marker-start:none;marker-mid:none;marker-end:none;paint-order:normal;enable-background:new" /><rect
         ry="8.701005"
         rx="7.9292889"
         y="200.49496"
         x="8.4950066"
         height="87.010048"
         width="111.01004"
         id="rect2898"
         style="display:inline;opacity:0.1;vector-effect:none;fill:none;fill-opacity:1;stroke:#000000;stroke-width:0.99000001;stroke-linecap:butt;stroke-linejoin:miter;stroke-miterlimit:4;stroke-dasharray:0.99000001, 0.99000001;stroke-dashoffset:0;stroke-opacity:1;marker:none;marker-start:none;marker-mid:none;marker-end:none;paint-order:normal;enable-background:new" /><path
         inkscape:connector-curvature="0"
         id="path2900"
         d="M 2.6203015e-5,288.99999 H 128.00003"
         style="display:inline;fill:none;stroke:#62a0ea;stroke-width:2;stroke-linecap:butt;stroke-linejoin:miter;stroke-miterlimit:4;stroke-dasharray:none;stroke-opacity:1;enable-background:new" /></g><path
       id="path3141-4"
       style="fill:#f96900;fill-opacity:1;stroke-width:0.147244"
       d="m 49.213031,215.35667 -16.1684,-8.02326 -13.502086,2.88518 c -0.02198,0.004 -0.04016,0.0181 -0.04866,0.0399 l -3.229798,6.76046 -5.570289,6.22511 c -0.03942,0.0442 -0.0059,0.11372 0.0531,0.11054 l 9.370829,-0.42473 6.070248,4.33591 11.321981,17.94525 c 0.0039,0.004 0.0083,0.009 0.01337,0.0135 l 12.193585,11.02112 c 0.0064,0.006 0.01405,0.0113 0.0222,0.0135 l 11.034398,4.12353 14.777418,18.35231 c 0.0415,0.0615 0.137095,0.0181 0.119449,-0.053 l -1.822846,-9.49469 16.370199,13.29081 c 0.05928,0.0501 0.14151,-0.0249 0.09735,-0.0886 l -7.738405,-13.03489 22.325416,10.56985 c 0.0662,0.0295 0.125,-0.0534 0.0752,-0.10623 l -16.294994,-17.50269 18.405404,4.03503 c 0.0757,0.0159 0.113,-0.0883 0.0443,-0.12391 l -35.673756,-20.20169 -2.004243,-4.59252 21.776784,4.76948 c 0.06721,0.0135 0.10955,-0.07 0.05751,-0.11507 l -16.17994,-13.99873 34.399545,5.5172 c 0.066,0.004 0.0972,-0.0797 0.0443,-0.11938 l -22.882909,-15.54282 33.824369,-2.58385 c 0.0703,-0.006 0.0836,-0.10334 0.0177,-0.12821 l -29.404361,-10.79113 28.745181,-8.25146 c 0.0651,-0.0204 0.0619,-0.11304 -0.004,-0.12821 l -27.121303,-5.03947 z"
       sodipodi:nodetypes="cccccccccccccccccccccccccccccccccccccccc" /><path
       d="m 24.544697,273.01327 c 0,-0.6903 -0.25223,-1.28768 -0.75669,-1.79214 -0.504461,-0.50447 -1.101849,-0.75671 -1.792163,-0.75671 -0.690315,0 -1.287702,0.25224 -1.792163,0.75671 -0.504461,0.50446 -0.756691,1.10184 -0.756691,1.79214 0,0.69033 0.25223,1.28773 0.756691,1.79218 0.504461,0.50444 1.101848,0.75666 1.792163,0.75666 0.690314,0 1.287702,-0.25222 1.792163,-0.75666 0.50446,-0.50445 0.75669,-1.10185 0.75669,-1.79218 z m -1.513382,10.43436 c -0.982371,0.98239 -2.177146,1.47358 -3.584325,1.47358 -1.380627,0 -2.588677,-0.49119 -3.624149,-1.47358 L 11.6013,279.14649 c -1.00892,-0.95584 -1.513381,-2.15063 -1.513381,-3.58438 0,-1.40714 0.504461,-2.61518 1.513381,-3.62412 10.991597,-11.02171 22.071606,-21.95511 32.952152,-33.08665 l 12.313818,10.51385 c 0,0 -22.516406,22.7629 -33.835955,34.08244 z M 75.44211,238.9622 c 0,1.03547 -0.305332,2.44265 -0.915995,4.22154 -1.247876,3.55777 -3.43166,6.44515 -6.551352,8.66212 -3.119689,2.21697 -6.551347,3.32545 -10.294975,3.32545 -4.911853,0 -9.113477,-1.74569 -12.604872,-5.23708 -3.4914,-3.4914 -5.2371,-7.69303 -5.2371,-12.60488 0,-4.91186 1.7457,-9.11349 5.2371,-12.60488 3.491395,-3.49141 7.693019,-5.23711 12.604872,-5.23711 1.539932,0 3.152878,0.21904 4.838838,0.65713 1.685961,0.43809 3.113054,1.05539 4.281278,1.85191 0.424807,0.29205 0.637211,0.66375 0.637211,1.11511 0,0.45137 -0.212404,0.82308 -0.637211,1.11513 l -11.66897,6.73057 v 8.92098 l 7.686385,4.26137 c 0.132753,-0.0797 1.1815,-0.72353 3.146239,-1.93155 1.964743,-1.20806 3.763544,-2.28336 5.396404,-3.22589 1.632857,-0.94255 2.568765,-1.41383 2.807722,-1.41383 0.398257,0 0.710224,0.13276 0.935903,0.39827 0.225682,0.26551 0.338523,0.59739 0.338523,0.99564 z"
       id="path1"
       style="fill:#5c5c5c;fill-opacity:1;stroke-width:0.0398259"
       sodipodi:nodetypes="ssssssssscsccsccccscssssssscscccccssss" /><path
       id="path3141-4-3"
       style="display:inline;fill:none;fill-opacity:1;stroke:#000000;stroke-width:0.561524;stroke-dasharray:none;stroke-opacity:1;enable-background:new"
       d="m 165.93457,177.26669 -2.18927,-1.08639 -1.82826,0.39067 c -0.003,5.3e-4 -0.006,0.003 -0.007,0.006 l -0.43734,0.91539 -0.75424,0.84291 c -0.006,0.006 -8.1e-4,0.0154 0.008,0.0149 l 1.26885,-0.0575 0.82195,0.5871 1.53304,2.42987 c 5.5e-4,5.4e-4 9.4e-4,9.4e-4 0.002,0.002 l 1.65107,1.49231 c 8.2e-4,8.2e-4 0.002,0.002 0.003,0.002 l 1.49412,0.55834 2.00093,2.48499 c 0.006,0.008 0.0186,0.003 0.0162,-0.008 l -0.24682,-1.28562 2.21661,1.79963 c 0.008,0.007 0.0192,-0.004 0.0131,-0.012 l -1.04782,-1.76499 3.02297,1.43121 c 0.009,0.004 0.0169,-0.008 0.0101,-0.0144 l -2.20642,-2.36994 2.49218,0.54636 c 0.0103,0.002 0.0153,-0.0119 0.006,-0.0168 l -4.8304,-2.7354 -0.27138,-0.62185 2.94868,0.64581 c 0.009,0.002 0.0148,-0.009 0.008,-0.0156 l -2.19085,-1.8955 4.65786,0.74706 c 0.009,5.4e-4 0.0132,-0.0108 0.006,-0.0162 l -3.09846,-2.10458 4.57998,-0.34986 c 0.01,-8.1e-4 0.0114,-0.014 0.003,-0.0174 l -3.98149,-1.46117 3.89224,-1.11728 c 0.008,-0.003 0.008,-0.0153 -5.5e-4,-0.0174 l -3.67234,-0.68237 z"
       sodipodi:nodetypes="cccccccccccccccccccccccccccccccccccccccc" /><path
       d="m 162.59436,185.07367 c 0,-0.0935 -0.0341,-0.17436 -0.10246,-0.24267 -0.0683,-0.0683 -0.14919,-0.10246 -0.24267,-0.10246 -0.0935,0 -0.17435,0.0341 -0.24266,0.10246 -0.0683,0.0683 -0.10246,0.1492 -0.10246,0.24267 0,0.0935 0.0341,0.17436 0.10246,0.24266 0.0683,0.0683 0.1492,0.10246 0.24266,0.10246 0.0935,0 0.17437,-0.0341 0.24267,-0.10246 0.0683,-0.0683 0.10246,-0.14919 0.10246,-0.24266 z m -0.20491,1.41286 c -0.13302,0.13302 -0.2948,0.19953 -0.48534,0.19953 -0.18694,0 -0.35052,-0.0665 -0.49073,-0.19953 l -0.57162,-0.5824 c -0.13661,-0.12942 -0.20491,-0.2912 -0.20491,-0.48534 0,-0.19053 0.0683,-0.3541 0.20491,-0.49072 1.48832,-1.49239 2.98861,-2.97283 4.46188,-4.4801 l 1.66735,1.42364 c 0,0 -3.04883,3.0822 -4.58154,4.61492 z m 7.09667,-6.02354 c 0,0.1402 -0.0413,0.33074 -0.12404,0.57162 -0.16896,0.48173 -0.46466,0.8727 -0.88708,1.17289 -0.42242,0.30019 -0.88708,0.45028 -1.39399,0.45028 -0.66508,0 -1.234,-0.23637 -1.70676,-0.70912 -0.47275,-0.47276 -0.70913,-1.04168 -0.70913,-1.70677 0,-0.66509 0.23638,-1.23401 0.70913,-1.70676 0.47276,-0.47275 1.04168,-0.70913 1.70676,-0.70913 0.20852,0 0.42692,0.0297 0.6552,0.089 0.2283,0.0593 0.42153,0.14291 0.57971,0.25076 0.0575,0.0396 0.0863,0.0899 0.0863,0.15099 0,0.0611 -0.0288,0.11145 -0.0863,0.15099 l -1.58003,0.91135 v 1.20795 l 1.04077,0.577 c 0.018,-0.0108 0.15998,-0.098 0.42602,-0.26153 0.26604,-0.16358 0.5096,-0.30918 0.73069,-0.4368 0.2211,-0.12763 0.34783,-0.19145 0.38018,-0.19145 0.0539,0 0.0962,0.0179 0.12673,0.0539 0.0305,0.036 0.0459,0.0809 0.0459,0.13482 z"
       id="path1-6"
       style="display:inline;fill:#020202;fill-opacity:1;stroke-width:0.00539262;enable-background:new"
       sodipodi:nodetypes="ssssssssscsccsccccscssssssscscccccssss" /></g></svg>
